<svg width="54" height="78" viewBox="0 0 54 78" fill="none" xmlns="http://www.w3.org/2000/svg">
<path d="M50.78 21.9053C50.78 32.0578 45.8863 38.4854 36.099 41.1878L23.8282 44.5842C18.4233 46.4102 15.7208 50.2083 15.7208 55.9784V72.9602H33.2504V64.8528C33.2504 63.9763 33.2869 63.0998 33.36 62.2234C33.433 61.2738 33.6156 60.3974 33.9078 59.5939C34.1999 58.7905 34.6382 58.0966 35.2225 57.5123C35.8068 56.8549 36.6468 56.3802 37.7424 56.088L53.8477 58.9366C52.7521 59.0096 51.8756 59.2287 51.2182 59.5939C50.5609 59.9591 50.0131 60.5434 49.5748 61.3469C49.2096 62.1503 48.954 63.2094 48.8079 64.5241C48.6618 65.8388 48.5888 67.4822 48.5888 69.4543V78H0.3824V61.8947C0.3824 51.6691 5.27608 45.0955 15.0634 42.1739L25.2525 39.1062C32.1183 37.2802 35.5512 32.7517 35.5512 25.5208V15.1126C35.5512 8.53896 32.2644 5.25216 25.6908 5.25216C19.1172 5.25216 15.8304 8.53896 15.8304 15.1126V17.4133C15.8304 19.3854 15.9034 21.0288 16.0495 22.3435C16.1956 23.6582 16.4512 24.7173 16.8164 25.5208C17.2546 26.3242 17.8024 26.9085 18.4598 27.2737C19.1172 27.5659 19.9936 27.785 21.0892 27.9311L4.98392 30.7796C3.88832 30.4875 3.04836 30.0492 2.46404 29.4649C1.87972 28.8076 1.44148 28.1137 1.14932 27.3833C0.85716 26.5798 0.67456 25.7399 0.60152 24.8634C0.52848 23.9139 0.49196 23.0009 0.49196 22.1244C0.49196 7.5164 7.79596 0.212398 22.404 0.212398H29.0871C43.549 0.212398 50.78 7.44336 50.78 21.9053Z" fill="#FA4D4D"/>
</svg>
