<svg width="51" height="80" viewBox="0 0 51 80" fill="none" xmlns="http://www.w3.org/2000/svg">
<path d="M50.78 20.5906C50.78 30.2318 46.142 36.075 36.8659 38.1202L30.0732 39.654L36.8659 41.1878C46.142 43.233 50.78 49.0762 50.78 58.7174C50.78 72.3029 43.9873 79.0956 30.4018 79.0956H22.2944C7.6864 79.0956 0.3824 71.7916 0.3824 57.1836C0.3824 56.3071 0.41892 55.4306 0.49196 54.5542C0.565 53.6046 0.7476 52.7647 1.03976 52.0343C1.33192 51.2308 1.77016 50.537 2.35448 49.9526C2.9388 49.2953 3.77876 48.8205 4.87436 48.5284L20.9797 51.3769C19.8841 51.45 19.0076 51.6691 18.3502 52.0343C17.6929 52.3995 17.1451 52.9838 16.7068 53.7872C16.3416 54.5907 16.086 55.6498 15.9399 56.9645C15.7938 58.2792 15.7208 59.9226 15.7208 61.8947V64.1954C15.7208 70.769 19.0076 74.0558 25.5812 74.0558C32.1548 74.0558 35.4416 70.769 35.4416 64.1954V56.1976C35.4416 48.8936 31.8626 44.5842 24.7047 43.2695L18.898 42.1739V37.1341L24.7047 36.0385C31.8626 34.7238 35.4416 30.4144 35.4416 23.1104V15.1126C35.4416 8.53896 32.1548 5.25216 25.5812 5.25216C19.0076 5.25216 15.7208 8.53896 15.7208 15.1126V17.4133C15.7208 19.3854 15.7938 21.0288 15.9399 22.3435C16.086 23.6582 16.3416 24.7173 16.7068 25.5208C17.1451 26.3242 17.6929 26.9085 18.3502 27.2737C19.0076 27.5659 19.8841 27.785 20.9797 27.9311L4.87436 30.7796C3.77876 30.4875 2.9388 30.0492 2.35448 29.4649C1.77016 28.8076 1.33192 28.1137 1.03976 27.3833C0.7476 26.5798 0.565 25.7399 0.49196 24.8634C0.41892 23.9139 0.3824 23.0009 0.3824 22.1244C0.3824 7.5164 7.6864 0.212398 22.2944 0.212398H30.4018C43.9873 0.212398 50.78 7.00512 50.78 20.5906Z" fill="#FA4D4D"/>
</svg>
