<svg width="45" height="80" viewBox="0 0 45 80" fill="none" xmlns="http://www.w3.org/2000/svg">
<g clip-path="url(#clip0_4480_1034)">
<path d="M39.61 79.22C39.0191 79.2206 38.4339 79.1042 37.8881 78.8777C37.3424 78.6511 36.8468 78.3189 36.43 77.9L1.32 42.8C0.901235 42.382 0.569003 41.8856 0.342322 41.3391C0.115642 40.7925 -0.0010376 40.2067 -0.0010376 39.615C-0.0010376 39.0233 0.115642 38.4375 0.342322 37.891C0.569003 37.3444 0.901235 36.848 1.32 36.43L36.43 1.32C37.2747 0.475288 38.4204 0.000732409 39.615 0.000732422C40.8096 0.000732434 41.9553 0.475288 42.8 1.32C43.6447 2.16472 44.1193 3.3104 44.1193 4.505C44.1193 5.69961 43.6447 6.84529 42.8 7.69L10.87 39.61L42.8 71.53C43.4277 72.1613 43.8545 72.9642 44.0267 73.8376C44.199 74.711 44.1088 75.6158 43.7677 76.4381C43.4266 77.2604 42.8498 77.9633 42.1099 78.4583C41.3701 78.9534 40.5002 79.2184 39.61 79.22Z" fill="#E95553"/>
</g>
<defs>
<clipPath id="clip0_4480_1034">
<rect width="44.11" height="79.22" fill="white"/>
</clipPath>
</defs>
</svg>
