<svg width="114" height="115" viewBox="0 0 114 115" fill="none" xmlns="http://www.w3.org/2000/svg">
<g clip-path="url(#clip0_4554_55)">
<path d="M84.0199 8.19916C81.3699 10.7792 78.7799 13.2992 76.1999 15.8192C75.4799 16.5192 74.8599 16.6592 73.8199 16.1792C69.6999 14.2392 65.2799 13.2692 60.7599 12.8992C52.0499 12.1792 43.7399 13.7392 35.9799 17.7992C30.7099 20.5592 26.0999 24.1592 22.2699 28.7792C17.6799 34.3292 14.5399 40.5492 12.9699 47.5492C11.0899 55.9192 11.5499 64.1892 14.3099 72.3092C16.7599 79.5092 20.8599 85.6492 26.4899 90.7892C33.6399 97.2992 42.0199 100.989 51.5999 102.179C58.4199 103.019 65.0399 102.229 71.4799 99.9592C74.0799 99.0392 76.5999 97.9292 78.9699 96.3892C81.3399 94.8592 83.5999 93.2492 85.7399 91.4292C86.5999 90.6992 87.6899 90.2392 88.4199 89.3292C89.1799 88.3792 89.8799 87.3592 90.7199 86.4892C92.0199 85.1292 93.0299 83.5792 94.1099 82.0592C97.5799 77.1792 99.7499 71.7692 100.83 65.9092C102.33 57.8192 101.66 49.8992 98.8799 42.1592C98.6899 41.6192 98.5199 41.0692 98.3499 40.5292C98.3299 40.4592 98.3499 40.3692 98.3499 40.1392C100.87 37.1792 103.65 34.3392 106.59 31.7792C107.54 31.9592 107.68 32.6792 107.96 33.2392C110.22 37.8292 111.74 42.6792 112.62 47.7092C113.24 51.2692 113.62 54.8692 113.52 58.4892C113.19 70.6492 109.57 81.7192 102.2 91.4492C100.43 93.7992 98.5199 96.0892 96.4099 98.1292C88.0499 106.179 78.2099 111.429 66.7099 113.469C55.4799 115.459 44.6499 114.129 34.1699 109.709C33.4199 109.389 32.6399 109.149 31.8799 108.859C31.5099 108.719 31.0699 108.629 30.7999 108.369C29.5499 107.169 27.9499 106.509 26.4599 105.769C24.1299 104.599 22.3399 102.739 20.1599 101.409C19.8199 101.199 19.5499 100.869 19.2699 100.569C19.1099 100.389 19.0399 100.099 18.8599 99.9692C17.1399 98.7192 15.4599 97.4292 14.4399 95.4892C12.5499 94.2292 11.4499 92.2692 10.2399 90.4692C7.74993 86.7392 5.65993 82.7792 3.99993 78.5992C1.83993 73.1392 0.569934 67.4992 0.159934 61.6292C-0.470066 52.6192 0.929934 43.9892 4.32993 35.6292C5.77993 32.0692 7.62993 28.7792 9.73993 25.5892C11.9499 22.2592 14.3899 19.1292 17.2999 16.3892C19.2999 14.5092 21.3899 12.7392 23.7599 11.2792C24.7699 10.6592 25.6999 9.90916 26.7599 9.30916C31.3899 6.67916 35.5299 4.81916 39.8899 3.41916C47.1799 1.03916 54.6799 0.419157 62.2699 1.11916C69.6099 1.78916 76.5899 3.87916 83.1199 7.37916C83.3399 7.49916 83.5399 7.63916 83.7299 7.77916C83.7899 7.81916 83.8199 7.90916 84.0199 8.19916Z" fill="white"/>
<path d="M20.8398 48.9992C22.3098 46.9792 23.9898 45.5092 26.0198 44.4492C26.6698 44.1092 27.3498 43.8092 28.0198 43.5092C32.6798 41.3992 36.9798 41.9892 40.8298 45.3492C43.8198 47.9592 46.2898 51.0192 48.1098 54.5692C49.3098 56.8992 50.4298 59.2692 51.5898 61.6192C51.7998 62.0392 52.0298 62.4492 52.3098 62.9892C53.0498 61.8192 53.7498 60.8392 54.3298 59.7892C56.3098 56.1792 58.6898 52.8192 61.0098 49.4292C62.2298 47.6392 63.6298 45.9692 64.9398 44.2292C65.8598 43.0092 66.6398 41.6492 67.6898 40.5492C69.6598 38.4992 71.1098 35.9692 73.4798 34.2792C74.1898 33.7692 74.7698 33.0092 75.2698 32.2692C75.9698 31.2392 76.8198 30.4192 77.8298 29.6892C78.6798 29.0792 79.3798 28.2592 80.1198 27.4992C81.0898 26.5092 81.9498 25.4092 83.2298 24.7592C83.5698 24.5892 83.8098 24.2092 84.1098 23.9492C86.6798 21.7392 89.2598 19.5592 92.1798 17.8092C93.8798 16.7892 95.4098 15.4992 97.1498 14.5192C98.1098 13.9792 98.9098 13.0992 99.9098 12.6792C102.13 11.7292 103.98 10.1192 106.3 9.32916C107.67 8.86916 108.86 7.87917 110.19 7.27917C110.8 6.99917 111.41 6.39917 112.32 6.76917C111.23 8.04917 110.19 9.30917 109.11 10.5292C107.53 12.3092 105.94 14.0792 104.31 15.8092C99.1498 21.3192 94.2098 27.0192 89.4298 32.8592C83.9298 39.5792 78.7798 46.5692 74.4798 54.1292C70.8598 60.4892 67.7198 67.0892 65.9398 74.2292C65.1998 77.1992 63.7298 79.6692 61.5998 81.7992C60.1498 83.2492 58.7698 84.7792 56.9998 85.8592C54.9398 87.1192 52.7698 87.9792 50.2698 87.8792C48.8798 87.8192 47.7598 87.1492 46.5898 86.5792C46.2798 86.4292 46.0598 85.9692 45.8998 85.6092C45.4398 84.5592 45.0098 83.4892 44.5998 82.4192C42.7498 77.6892 40.9098 72.9592 38.6098 68.4292C36.7698 64.7992 34.5198 61.4192 32.0998 58.1392C30.0498 55.3692 27.5098 53.1192 24.9098 50.9192C24.2998 50.4092 23.4598 50.1592 22.7198 49.8192C22.1498 49.5592 21.5698 49.3292 20.8198 49.0092L20.8398 48.9992Z" fill="white"/>
</g>
<defs>
<clipPath id="clip0_4554_55">
<rect width="113.52" height="113.51" fill="white" transform="translate(0 0.849182)"/>
</clipPath>
</defs>
</svg>
