<svg width="213" height="53" viewBox="0 0 213 53" fill="none" xmlns="http://www.w3.org/2000/svg">
<path d="M20.89 2.00012L28.3 0.630127V33.0001C28.2943 33.8281 28.331 34.6559 28.41 35.4801C28.4518 36.028 28.5836 36.5652 28.8 37.0701C28.9566 37.4328 29.2269 37.7346 29.57 37.9301C29.9724 38.1146 30.4007 38.2361 30.84 38.2901L23.06 39.7201C22.5995 39.6094 22.1799 39.3701 21.85 39.0301C21.5641 38.7222 21.3461 38.3577 21.21 37.9601C21.0661 37.5402 20.9786 37.1031 20.95 36.6601C20.91 36.2001 20.89 35.7501 20.89 35.3101V21.1601H8.20004V39.1601H0.790039V2.00012L8.20004 0.630127V18.6301H20.89V2.00012ZM47.45 39.7501C46.8746 39.4049 46.3855 38.9329 46.02 38.3701C45.2182 38.8076 44.3649 39.1435 43.48 39.3701C42.3222 39.6543 41.132 39.7854 39.94 39.7601C38.7644 39.7855 37.5953 39.5782 36.5 39.1501C35.5798 38.7971 34.7498 38.2438 34.07 37.5301C33.4374 36.8569 32.9505 36.0603 32.64 35.1901C32.3245 34.3248 32.162 33.4112 32.16 32.4901V20.3901C32.16 17.4501 33.57 15.8701 36.39 15.6501L48.03 14.6501C50.85 14.4301 52.26 15.7868 52.26 18.7201V33.3801C52.2313 34.5315 52.3558 35.6815 52.63 36.8001C52.7855 37.2375 53.0729 37.6159 53.4527 37.8828C53.8325 38.1497 54.2858 38.2921 54.75 38.2901L47.45 39.7501ZM39 32.4601C38.9538 33.1002 39.0449 33.7428 39.2674 34.3447C39.4899 34.9466 39.8386 35.494 40.29 35.9501C41.1027 36.7133 42.1752 37.1388 43.29 37.1401C44.0147 37.1271 44.7305 36.9778 45.4 36.7001C45.3312 36.4767 45.2975 36.2439 45.3 36.0101V19.0701C45.3 17.6001 44.59 16.9201 43.18 17.0701L41.06 17.2901C40.7582 17.2828 40.4583 17.3413 40.1814 17.4615C39.9044 17.5818 39.6569 17.7609 39.4561 17.9864C39.2553 18.2119 39.1061 18.4785 39.0187 18.7675C38.9313 19.0565 38.9078 19.3611 38.95 19.6601L39 32.4601ZM76.13 46.8901C76.13 50.9301 74.19 52.9501 70.31 52.9501H63.9C60.02 52.9501 58.08 50.9301 58.08 46.8901V43.8901L65.08 42.3501L64.98 49.3501C64.98 50.4501 65.51 51.0001 66.56 51.0001H67.73C68.79 51.0001 69.32 50.4501 69.32 49.3501V38.6301C68.5618 38.9744 67.7713 39.2423 66.96 39.4301C65.9446 39.6459 64.908 39.7466 63.87 39.7301C62.6944 39.7555 61.5253 39.5482 60.43 39.1201C59.5098 38.7672 58.6798 38.2138 58 37.5001C57.3641 36.8294 56.8768 36.032 56.57 35.1601C56.2545 34.2948 56.092 33.3812 56.09 32.4601V15.7601L62.97 14.3801V32.4601C62.9231 33.0985 63.012 33.7397 63.2309 34.3412C63.4499 34.9428 63.7938 35.4912 64.24 35.9501C65.0453 36.7249 66.1227 37.1523 67.24 37.1401C67.9514 37.1237 68.6535 36.9745 69.31 36.7001V15.7601L76.18 14.3801L76.13 46.8901ZM99.3 14.3801V32.4601C99.2531 33.0985 99.342 33.7397 99.561 34.3412C99.7799 34.9428 100.124 35.4912 100.57 35.9501C101.376 36.7231 102.453 37.1501 103.57 37.1401C104.108 37.1271 104.641 37.0326 105.15 36.8601C105.118 36.6047 105.101 36.3475 105.1 36.0901V15.7601L111.98 14.3801V33.0001C111.972 33.8279 112.005 34.6557 112.08 35.4801C112.125 36.0285 112.26 36.5658 112.48 37.0701C112.633 37.4348 112.904 37.7375 113.25 37.9301C113.652 38.116 114.08 38.2375 114.52 38.2901L107.22 39.7201C106.598 39.536 106.056 39.1487 105.68 38.6201C104.916 38.9318 104.131 39.1891 103.33 39.3901C102.297 39.6281 101.24 39.7389 100.18 39.7201C98.2272 39.8226 96.3061 39.1952 94.79 37.9601C93.8951 38.4327 92.9658 38.8372 92.01 39.1701C90.7157 39.5708 89.3645 39.7566 88.01 39.7201C86.8376 39.7458 85.6717 39.5384 84.58 39.1101C83.6582 38.7546 82.8254 38.2017 82.14 37.4901C81.511 36.8141 81.0246 36.0183 80.71 35.1501C80.4023 34.2831 80.2434 33.3702 80.24 32.4501V20.7201C80.2688 19.5688 80.1443 18.4187 79.87 17.3001C79.7159 16.8619 79.4287 16.4827 79.0487 16.2156C78.6686 15.9485 78.2146 15.8067 77.75 15.8101L85.05 14.3801C85.699 14.7987 86.2294 15.3773 86.59 16.0601C86.977 16.9338 87.155 17.8856 87.11 18.8401V32.4601C87.0651 33.1009 87.1578 33.7439 87.3821 34.3459C87.6063 34.9479 87.9568 35.4949 88.41 35.9501C89.221 36.7159 90.2946 37.1418 91.41 37.1401C92.1606 37.129 92.9003 36.9586 93.58 36.6401C92.77 35.3976 92.3456 33.9433 92.36 32.4601V15.7601L99.3 14.3801ZM124 39.1801H117.12V21.1001C117.128 20.2723 117.095 19.4446 117.02 18.6201C116.98 18.0708 116.845 17.5327 116.62 17.0301C116.464 16.6649 116.199 16.3573 115.86 16.1501C115.467 15.9443 115.033 15.8282 114.59 15.8101L121.89 14.3801C122.35 14.4929 122.769 14.7319 123.1 15.0701C123.383 15.3792 123.591 15.7485 123.71 16.1501C123.834 16.5708 123.914 17.0031 123.95 17.4401C123.95 17.9001 124 18.3501 124 18.7901V26.0601H130.88V15.7601L137.75 14.3801V33.0001C137.744 33.8281 137.781 34.6559 137.86 35.4801C137.9 36.0294 138.035 36.5675 138.26 37.0701C138.413 37.432 138.68 37.7341 139.02 37.9301C139.422 38.1146 139.851 38.2361 140.29 38.2901L132.99 39.7201C132.53 39.6074 132.111 39.3684 131.78 39.0301C131.496 38.7259 131.287 38.3594 131.17 37.9601C131.047 37.5358 130.967 37.1004 130.93 36.6601C130.93 36.2001 130.93 35.7501 130.93 35.3101V28.0401H124V39.1801ZM155 15.7601L161.88 14.3801V33.0001C161.872 33.8279 161.905 34.6557 161.98 35.4801C162.025 36.0285 162.16 36.5658 162.38 37.0701C162.533 37.4348 162.804 37.7375 163.15 37.9301C163.552 38.1146 163.981 38.2361 164.42 38.2901L157.12 39.7201C156.749 39.6324 156.405 39.4537 156.12 39.2001C155.877 38.9614 155.665 38.6925 155.49 38.4001C154.695 38.7971 153.861 39.1088 153 39.3301C151.875 39.6107 150.719 39.7418 149.56 39.7201C148.388 39.7458 147.222 39.5384 146.13 39.1101C145.208 38.7546 144.375 38.2017 143.69 37.4901C143.061 36.8141 142.575 36.0183 142.26 35.1501C141.952 34.2831 141.793 33.3702 141.79 32.4501V15.7501L148.66 14.3701V32.4501C148.611 33.1037 148.706 33.7601 148.938 34.3733C149.169 34.9865 149.532 35.5417 150 36.0001C150.811 36.7659 151.885 37.1918 153 37.1901C153.708 37.1737 154.407 37.0244 155.06 36.7501C155.022 36.5019 155.001 36.2513 155 36.0001V15.7601ZM188.38 16.3101C188.03 16.3257 187.687 16.418 187.376 16.5804C187.065 16.7428 186.793 16.9714 186.58 17.2501C186.205 17.8129 185.928 18.435 185.76 19.0901C185.57 19.8101 185.36 20.5901 185.15 21.4301C184.934 22.2928 184.558 23.107 184.04 23.8301C183.415 24.6633 182.612 25.3466 181.69 25.8301C180.323 26.5168 178.842 26.9473 177.32 27.1001C178.902 27.1746 180.451 27.5764 181.87 28.2801C182.813 28.7823 183.622 29.5023 184.23 30.3801C184.719 31.1463 185.058 31.9979 185.23 32.8901C185.396 33.7175 185.606 34.5353 185.86 35.3401C186.1 36.0654 186.488 36.7329 187 37.3001C187.658 37.9292 188.53 38.2864 189.44 38.3001L183.09 39.8401C182.097 39.6107 181.199 39.0798 180.52 38.3201C179.976 37.6354 179.572 36.8506 179.33 36.0101C179.086 35.1422 178.912 34.256 178.81 33.3601C178.716 32.5201 178.511 31.6962 178.2 30.9101C177.91 30.1916 177.434 29.5634 176.82 29.0901C175.96 28.5534 174.951 28.3047 173.94 28.3801V28.3201V39.1801H167.06V21.1001C167.066 20.2721 167.029 19.4444 166.95 18.6201C166.908 18.0723 166.777 17.5351 166.56 17.0301C166.401 16.6639 166.132 16.3563 165.79 16.1501C165.398 15.9411 164.964 15.8247 164.52 15.8101L171.82 14.3801C172.283 14.4931 172.705 14.732 173.04 15.0701C173.319 15.3817 173.527 15.7502 173.65 16.1501C173.775 16.57 173.852 17.0028 173.88 17.4401C173.92 17.9001 173.94 18.3501 173.94 18.7901V25.9001V25.8401C174.935 25.9397 175.93 25.6533 176.72 25.0401C177.278 24.4835 177.687 23.7958 177.91 23.0401C178.169 22.1745 178.369 21.2925 178.51 20.4001C178.655 19.4567 178.995 18.554 179.51 17.7501C180.131 16.8701 180.982 16.1781 181.97 15.7501C183.541 15.1354 185.225 14.8627 186.91 14.9501H188.34L188.38 16.3101ZM203.14 15.7601L210.01 14.3801V33.0001C210.004 33.8281 210.041 34.6559 210.12 35.4801C210.16 36.0294 210.295 36.5675 210.52 37.0701C210.673 37.432 210.94 37.7341 211.28 37.9301C211.683 38.1133 212.111 38.2347 212.55 38.2901L205.25 39.7201C204.879 39.6316 204.536 39.453 204.25 39.2001C204.004 38.9613 203.789 38.6926 203.61 38.4001C202.819 38.7988 201.988 39.1106 201.13 39.3301C200.005 39.6107 198.849 39.7418 197.69 39.7201C196.514 39.7455 195.345 39.5382 194.25 39.1101C193.33 38.7571 192.5 38.2038 191.82 37.4901C191.187 36.8169 190.701 36.0202 190.39 35.1501C190.074 34.2848 189.912 33.3712 189.91 32.4501V15.7501L196.79 14.3701V32.4501C196.743 33.0911 196.835 33.7347 197.059 34.3369C197.284 34.9392 197.635 35.4861 198.09 35.9401C198.9 36.7068 199.974 37.1328 201.09 37.1301C201.798 37.1127 202.497 36.9635 203.15 36.6901C203.118 36.4615 203.101 36.231 203.1 36.0001V15.7601H203.14Z" fill="#F75C4B"/>
</svg>
