<svg width="119" height="119" viewBox="0 0 119 119" fill="none" xmlns="http://www.w3.org/2000/svg">
<g clip-path="url(#clip0_4554_9)">
<path d="M86.1199 7.1919C83.02 10.3019 80.0499 13.2719 77.0599 16.2719C74.6499 15.5519 72.1499 14.6619 69.5799 14.0719C60.6299 12.0119 51.8099 12.5719 43.1699 15.6719C37.7499 17.6219 32.86 20.4819 28.5 24.2719C19.34 32.2519 13.9799 42.3019 12.67 54.2919C11.32 66.6319 14.33 77.9819 21.93 87.9319C29.57 97.9319 39.7 103.852 52.0999 105.842C59.6899 107.062 67.13 106.202 74.41 103.812C78.2899 102.542 81.6799 100.332 85.1699 98.3219C85.8199 97.9519 86.3599 97.3019 87.0299 96.8419C87.6899 96.3819 88.1799 95.7119 89.0199 95.4519C89.3799 95.3319 89.6699 94.9619 89.9599 94.6619C91.3499 93.2619 92.77 91.8819 94.1099 90.4319C95.0399 89.4119 95.8899 88.3119 96.7099 87.2019C101.84 80.2119 104.92 72.4419 105.67 63.7619C106.3 56.5319 105.29 49.5619 102.73 42.7919C102.55 42.3319 102.37 41.8619 102.18 41.4119C101.77 40.4519 102.01 39.6619 102.73 38.9519C105.26 36.4519 107.78 33.9319 110.25 31.4819C111.24 31.3719 111.44 32.0919 111.73 32.6519C113.7 36.5019 115.28 40.5019 116.32 44.6919C119.43 57.2019 118.79 69.5019 114.01 81.5119C111.76 87.1519 108.67 92.2919 104.79 96.9919C96.91 106.542 87.0899 113.062 75.2099 116.472C68.5399 118.382 61.75 119.072 54.81 118.552C48.38 118.072 42.2399 116.582 36.2799 114.172C34.5599 113.472 32.8499 112.792 31.2299 111.872C30.0499 111.202 28.9 110.472 27.7 109.852C26.54 109.262 25.41 108.672 24.59 107.632C23.24 107.512 22.87 105.952 21.6 105.632C21.13 105.512 20.8099 104.832 20.41 104.422C20.07 104.072 19.76 103.632 19.34 103.412C17.76 102.572 16.66 101.262 15.66 99.8419C15.47 99.5719 15.3099 99.2819 15.08 99.0519C14.4399 98.4119 13.66 97.8819 13.15 97.1519C11.3799 94.6419 9.55995 92.1419 8.02995 89.4819C6.62995 87.0519 5.49995 84.4619 4.41995 81.8719C3.52995 79.7419 2.79995 77.5219 2.15995 75.3019C0.20995 68.5319 -0.33005 61.6019 0.17995 54.6219C0.62995 48.5619 2.10995 42.7119 4.42995 37.0719C6.11995 32.9619 8.18995 29.0619 10.72 25.4219C11.73 23.9719 12.83 22.5619 14.03 21.2219C15.17 19.9419 16.17 18.5219 17.42 17.3119C18.36 16.4019 19.16 15.3119 20.4699 14.8519C20.6899 14.7719 20.92 14.5819 21.04 14.3819C22.2 12.5019 24.22 11.6619 25.93 10.5419C32.43 6.2919 39.4899 3.2919 47.1199 1.7519C60.3099 -0.898101 72.9899 0.661899 85.0999 6.5619C85.3199 6.6719 85.5299 6.8019 85.7399 6.9319C85.8799 7.0219 85.9999 7.1219 86.0999 7.2019L86.1199 7.1919Z" fill="white"/>
<path d="M58.6599 64.8719C54.1799 71.6219 50.3099 78.3319 47.1399 85.4419C46.2999 87.3219 45.2599 89.1219 44.2599 90.9219C43.9399 91.4819 43.4799 91.9919 42.9999 92.4319C41.9499 93.3719 40.6799 93.7719 39.3099 93.4019C37.7999 92.9919 36.2299 92.6319 34.8799 91.8919C32.8699 90.8019 31.8899 88.9219 32.0599 86.5919C32.1299 85.6119 32.3399 84.6119 32.6299 83.6719C33.5999 80.5119 35.0099 77.5419 36.7299 74.7219C38.3799 72.0219 39.9299 69.2519 41.6099 66.5719C42.8199 64.6519 44.0099 62.6619 45.5399 61.0119C47.0499 59.3919 47.8999 57.2119 50.1199 56.1319C49.7999 55.6219 49.6299 55.2619 49.3799 54.9819C48.3999 53.8719 47.3999 52.7819 46.3799 51.7019C46.0399 51.3419 45.6899 50.9219 45.2499 50.7419C43.9699 50.2119 42.9999 49.2519 42.2199 48.2419C40.7399 46.3319 38.2799 45.5419 37.0299 43.4219C35.6699 42.9019 34.7399 41.8719 33.8499 40.7919C32.3699 40.5219 31.7899 38.9919 30.4999 38.4119C29.5599 37.9919 29.1399 36.8419 28.1299 36.3819C27.9099 36.2819 27.9399 35.6519 27.8799 35.3919C28.2999 34.7319 28.8299 34.7719 29.3099 34.7519C31.9999 34.6719 34.5799 35.1919 37.0699 36.1819C41.7799 38.0419 46.1699 40.5219 50.4099 43.2619C51.9999 44.2919 53.5499 45.3819 55.1299 46.4319C55.8799 46.9319 56.6499 47.4119 57.5399 47.9819C58.2299 47.3219 58.9599 46.7619 59.5199 46.0719C61.0399 44.2119 62.6399 42.4619 64.7499 41.2419C65.0999 41.0419 65.3699 40.7019 65.6499 40.4019C65.9299 40.1019 66.0999 39.6519 66.4299 39.4619C68.1499 38.5019 69.2099 36.7319 71.0099 35.8719C71.5599 35.6119 71.8599 34.8519 72.3999 34.5019C74.5599 33.0919 76.3699 31.2319 78.5199 29.8219C79.8499 28.9519 81.1099 27.9719 82.4299 27.1119C83.8299 26.2019 85.0299 25.0519 86.5399 24.2719C88.3599 23.3319 90.0299 22.1019 91.7599 20.9819C92.8899 20.2619 93.9799 19.4919 95.1299 18.8019C95.8799 18.3619 96.6799 17.9819 97.4999 17.6719C98.2699 17.3819 98.5799 16.4119 99.5399 16.4119C99.8299 16.4119 100.15 16.1619 100.41 15.9619C102.95 14.0419 105.94 13.0119 108.74 11.6019C109.32 11.3119 109.8 10.8219 110.4 10.5819C112.01 9.95192 113.64 9.37192 115.28 8.85192C116.14 8.58192 117.05 8.45192 117.94 8.32192C118.21 8.28192 118.52 8.45192 118.86 8.53192C118.74 9.41192 118.14 9.77192 117.64 10.1519C114.48 12.5419 111.28 14.8819 108.12 17.2819C104.05 20.3819 99.9699 23.4719 95.9599 26.6519C92.3999 29.4719 88.8199 32.2919 85.4599 35.3319C80.6699 39.6619 75.7899 43.9019 71.5699 48.8219C70.0599 50.5819 68.5099 52.3019 66.9899 54.0519C66.8299 54.2319 66.7399 54.4719 66.5599 54.7619C66.8199 55.4719 67.4999 55.8319 68.0199 56.3319C68.5499 56.8519 69.1299 57.3219 69.6899 57.8119C74.8099 62.2719 79.8299 66.8419 83.8899 72.3319C85.6699 74.7319 87.0899 77.3119 87.8099 80.2919C88.8699 84.6919 86.1899 88.5219 83.5299 90.4219C82.5699 91.1119 81.4499 91.2119 80.4499 90.8119C79.6699 90.5019 78.9999 89.7919 78.4399 89.1219C76.8399 87.2019 75.1299 85.3219 73.8099 83.2119C71.9499 80.2519 69.5099 77.7219 67.7699 74.6919C66.2899 73.6219 65.4199 71.9919 64.2599 70.6319C62.8699 69.0119 61.3499 67.5119 59.9899 65.8719C59.6999 65.5219 59.2499 65.3019 58.6799 64.8819L58.6599 64.8719Z" fill="white"/>
</g>
<defs>
<clipPath id="clip0_4554_9">
<rect width="118.84" height="118.21" fill="white" transform="translate(0 0.501953)"/>
</clipPath>
</defs>
</svg>
